<mxfile host="app.diagrams.net" modified="2024-03-23T12:37:12.567Z" agent="Mozilla/5.0 (Windows NT 10.0; Win64; x64) AppleWebKit/537.36 (KHTML, like Gecko) Chrome/122.0.0.0 Safari/537.36" etag="hJ3Dx-sEp3di6qNpuTXh" version="23.0.2" type="github">
  <diagram name="Page-1" id="S-mAuXdGPn2xISZw5el7">
    <mxGraphModel dx="1886" dy="828" grid="1" gridSize="10" guides="1" tooltips="1" connect="1" arrows="1" fold="1" page="1" pageScale="1" pageWidth="827" pageHeight="1169" math="0" shadow="0">
      <root>
        <mxCell id="0" />
        <mxCell id="1" parent="0" />
        <mxCell id="E9ltpVrUCK7b7EfplUYY-1" value="" style="whiteSpace=wrap;html=1;aspect=fixed;fontStyle=1" vertex="1" parent="1">
          <mxGeometry x="30" y="20" width="790" height="790" as="geometry" />
        </mxCell>
        <mxCell id="E9ltpVrUCK7b7EfplUYY-2" style="edgeStyle=orthogonalEdgeStyle;rounded=0;orthogonalLoop=1;jettySize=auto;html=1;endArrow=block;endFill=0;" edge="1" parent="1">
          <mxGeometry relative="1" as="geometry">
            <mxPoint x="125" y="350" as="sourcePoint" />
            <mxPoint x="125" y="230" as="targetPoint" />
          </mxGeometry>
        </mxCell>
        <mxCell id="E9ltpVrUCK7b7EfplUYY-3" value="Modirator" style="shape=umlActor;verticalLabelPosition=bottom;verticalAlign=top;html=1;fontStyle=1" vertex="1" parent="1">
          <mxGeometry x="110" y="366" width="30" height="60" as="geometry" />
        </mxCell>
        <mxCell id="E9ltpVrUCK7b7EfplUYY-4" value="User" style="shape=umlActor;verticalLabelPosition=bottom;verticalAlign=top;html=1;fontStyle=1" vertex="1" parent="1">
          <mxGeometry x="110" y="126" width="30" height="60" as="geometry" />
        </mxCell>
        <mxCell id="E9ltpVrUCK7b7EfplUYY-5" style="edgeStyle=orthogonalEdgeStyle;rounded=0;orthogonalLoop=1;jettySize=auto;html=1;endArrow=open;endFill=0;" edge="1" parent="1">
          <mxGeometry relative="1" as="geometry">
            <mxPoint x="125" y="600" as="sourcePoint" />
            <mxPoint x="125" y="460" as="targetPoint" />
          </mxGeometry>
        </mxCell>
        <mxCell id="E9ltpVrUCK7b7EfplUYY-6" value="Administrator" style="shape=umlActor;verticalLabelPosition=bottom;verticalAlign=top;html=1;fontStyle=1" vertex="1" parent="1">
          <mxGeometry x="110" y="620" width="30" height="60" as="geometry" />
        </mxCell>
        <mxCell id="E9ltpVrUCK7b7EfplUYY-7" value="" style="rounded=0;whiteSpace=wrap;html=1;" vertex="1" parent="1">
          <mxGeometry x="220" y="96" width="580" height="694" as="geometry" />
        </mxCell>
        <mxCell id="E9ltpVrUCK7b7EfplUYY-8" value="consult my orders" style="ellipse;whiteSpace=wrap;html=1;fontStyle=1" vertex="1" parent="1">
          <mxGeometry x="420" y="106" width="190" height="50" as="geometry" />
        </mxCell>
        <mxCell id="E9ltpVrUCK7b7EfplUYY-25" style="edgeStyle=orthogonalEdgeStyle;rounded=0;orthogonalLoop=1;jettySize=auto;html=1;entryX=1;entryY=0.5;entryDx=0;entryDy=0;endArrow=open;endFill=0;dashed=1;" edge="1" parent="1" source="E9ltpVrUCK7b7EfplUYY-9" target="E9ltpVrUCK7b7EfplUYY-11">
          <mxGeometry relative="1" as="geometry">
            <Array as="points">
              <mxPoint x="640" y="191" />
              <mxPoint x="640" y="425" />
            </Array>
          </mxGeometry>
        </mxCell>
        <mxCell id="E9ltpVrUCK7b7EfplUYY-9" value="Create order" style="ellipse;whiteSpace=wrap;html=1;fontStyle=1" vertex="1" parent="1">
          <mxGeometry x="430" y="166" width="190" height="50" as="geometry" />
        </mxCell>
        <mxCell id="E9ltpVrUCK7b7EfplUYY-28" style="edgeStyle=orthogonalEdgeStyle;rounded=0;orthogonalLoop=1;jettySize=auto;html=1;entryX=0.5;entryY=0;entryDx=0;entryDy=0;endArrow=open;endFill=0;dashed=1;" edge="1" parent="1" source="E9ltpVrUCK7b7EfplUYY-11" target="E9ltpVrUCK7b7EfplUYY-26">
          <mxGeometry relative="1" as="geometry" />
        </mxCell>
        <mxCell id="E9ltpVrUCK7b7EfplUYY-11" value="Validate Order" style="ellipse;whiteSpace=wrap;html=1;fontStyle=1" vertex="1" parent="1">
          <mxGeometry x="370" y="400" width="190" height="50" as="geometry" />
        </mxCell>
        <mxCell id="E9ltpVrUCK7b7EfplUYY-13" style="edgeStyle=orthogonalEdgeStyle;rounded=0;orthogonalLoop=1;jettySize=auto;html=1;entryX=1;entryY=0.5;entryDx=0;entryDy=0;exitX=1;exitY=0.5;exitDx=0;exitDy=0;endArrow=open;endFill=0;dashed=1;" edge="1" parent="1" source="E9ltpVrUCK7b7EfplUYY-9" target="E9ltpVrUCK7b7EfplUYY-16">
          <mxGeometry relative="1" as="geometry" />
        </mxCell>
        <mxCell id="E9ltpVrUCK7b7EfplUYY-16" value="Cancel Order" style="ellipse;whiteSpace=wrap;html=1;fontStyle=1" vertex="1" parent="1">
          <mxGeometry x="390" y="270" width="190" height="50" as="geometry" />
        </mxCell>
        <mxCell id="E9ltpVrUCK7b7EfplUYY-19" value="" style="endArrow=open;html=1;rounded=0;endFill=0;entryX=0;entryY=0.5;entryDx=0;entryDy=0;" edge="1" parent="1" target="E9ltpVrUCK7b7EfplUYY-16">
          <mxGeometry width="50" height="50" relative="1" as="geometry">
            <mxPoint x="170" y="426" as="sourcePoint" />
            <mxPoint x="440" y="430" as="targetPoint" />
          </mxGeometry>
        </mxCell>
        <mxCell id="E9ltpVrUCK7b7EfplUYY-20" value="" style="endArrow=open;html=1;rounded=0;endFill=0;entryX=0;entryY=0.5;entryDx=0;entryDy=0;" edge="1" parent="1" target="E9ltpVrUCK7b7EfplUYY-11">
          <mxGeometry width="50" height="50" relative="1" as="geometry">
            <mxPoint x="180" y="436" as="sourcePoint" />
            <mxPoint x="450" y="440" as="targetPoint" />
          </mxGeometry>
        </mxCell>
        <mxCell id="E9ltpVrUCK7b7EfplUYY-22" value="" style="endArrow=open;html=1;rounded=0;entryX=0;entryY=0.5;entryDx=0;entryDy=0;endFill=0;" edge="1" parent="1" target="E9ltpVrUCK7b7EfplUYY-9">
          <mxGeometry width="50" height="50" relative="1" as="geometry">
            <mxPoint x="160" y="176" as="sourcePoint" />
            <mxPoint x="450" y="271" as="targetPoint" />
          </mxGeometry>
        </mxCell>
        <mxCell id="E9ltpVrUCK7b7EfplUYY-23" value="" style="endArrow=open;html=1;rounded=0;entryX=0;entryY=0.5;entryDx=0;entryDy=0;endFill=0;" edge="1" parent="1" target="E9ltpVrUCK7b7EfplUYY-8">
          <mxGeometry width="50" height="50" relative="1" as="geometry">
            <mxPoint x="160" y="166" as="sourcePoint" />
            <mxPoint x="440" y="201" as="targetPoint" />
          </mxGeometry>
        </mxCell>
        <mxCell id="E9ltpVrUCK7b7EfplUYY-24" value="Orders Management" style="text;html=1;strokeColor=none;fillColor=none;align=center;verticalAlign=middle;whiteSpace=wrap;rounded=0;fontStyle=1" vertex="1" parent="1">
          <mxGeometry x="360" y="40" width="180" height="30" as="geometry" />
        </mxCell>
        <mxCell id="E9ltpVrUCK7b7EfplUYY-26" value="Deliver Order" style="ellipse;whiteSpace=wrap;html=1;fontStyle=1" vertex="1" parent="1">
          <mxGeometry x="370" y="540" width="190" height="50" as="geometry" />
        </mxCell>
      </root>
    </mxGraphModel>
  </diagram>
</mxfile>
